<svg xmlns="http://www.w3.org/2000/svg" viewBox="0 0 233.71 233.81"><defs><style>.cls-1{fill:#fff;}</style></defs><g id="Camada_2" data-name="Camada 2"><g id="Camada_1-2" data-name="Camada 1"><path class="cls-1" d="M116.45,233.75H104c-3.7,0-5.87-1.7-6.46-5.51-1.26-8.06-2.83-16.07-3.94-24.15-.48-3.49-2-5.3-5.39-6a15.37,15.37,0,0,1-5.55-2.19c-5.6-4-10.15-2.41-15,1.64S57,205,51.71,208.8c-3.24,2.32-6,2.16-8.86-.75-5.69-5.85-11.45-11.65-17.32-17.32-3.08-3-3.32-5.77-.78-9.2,4.86-6.56,9.69-13.16,14.16-20,1-1.56.92-4.16.61-6.17s-2-3.58-2.3-5.47c-1.23-8.11-6.56-10.43-13.87-11.06-6-.51-11.8-2-17.72-2.95C1.87,135.31,0,133.24,0,129.51Q0,116.76,0,104c0-3.7,1.68-5.86,5.5-6.44,7.74-1.18,15.43-2.66,23.17-3.76,3.63-.52,6.24-1.67,6.94-5.7a12.38,12.38,0,0,1,2-5.09c4.32-5.92,2.57-10.75-1.74-15.87-4-4.7-7.09-10.08-10.72-15.06-2.44-3.35-2.53-6.22.61-9.25q8.82-8.51,17.32-17.32c3-3.13,5.84-3.12,9.22-.63,6.57,4.85,13.16,9.68,20,14.15,1.55,1,4.24,1.08,6.15.59,3.19-.83,6.06-2.94,9.26-3.66,4.38-1,5.67-3.63,6.17-7.66.92-7.26,2.35-14.46,3.37-21.71C97.87,2,100.15-.1,104.88,0c8,.17,16,.09,24,0,4.19,0,6.39,1.83,7,6.08,1.18,7.9,2.75,15.74,4,23.63.48,3,1.51,5.22,4.89,5.94a18.55,18.55,0,0,1,6.49,2.53c5.06,3.41,9.15,2.62,13.7-1.3,5-4.33,10.83-7.76,16.1-11.83,3.79-2.93,6.76-2.5,10,.91,5.27,5.56,10.68,11,16.27,16.24,3.65,3.43,3.7,6.55.79,10.45-4.58,6.14-8.74,12.59-13.31,18.74-2,2.69-2.75,5-.81,8.08a24.17,24.17,0,0,1,3.28,7.79c1,4.81,4,6.15,8.38,6.67,7.26.87,14.45,2.34,21.7,3.39,4.39.63,6.4,2.87,6.34,7.35-.13,8-.1,16,0,24,.05,4.43-1.87,6.66-6.34,7.33-8.06,1.19-16.06,2.82-24.11,4.13-2.72.45-4.65,1.42-5.18,4.39a9.37,9.37,0,0,1-1.37,3.73c-5.5,7.58-3.22,13.83,2.57,20.14,3.8,4.14,6.68,9.13,10,13.7,2.11,2.89,1.93,5.5-.61,8-6,6-12.06,12-18,18-2.88,2.94-5.7,2.78-8.88.5-6.22-4.48-12.63-8.69-18.75-13.3-3.12-2.35-5.89-3.4-9.37-.88a11.42,11.42,0,0,1-4.55,2c-7.06,1.21-9.54,5.64-10.09,12.39-.5,6.11-2.28,12.1-3,18.2-.63,5.06-3.27,6.88-8.06,6.68C124.12,233.63,120.28,233.76,116.45,233.75Zm36.13-117a35.76,35.76,0,1,0-35.43,36A36,36,0,0,0,152.58,116.7Z"/></g></g></svg>