<svg xmlns="http://www.w3.org/2000/svg" viewBox="0 0 95.42 26.13"><defs><style>.cls-1,.cls-2{fill:#fff;}.cls-2{stroke:#fff;stroke-miterlimit:10;stroke-width:0.25px;}</style></defs><g id="Camada_2" data-name="Camada 2"><g id="Camada_1-2" data-name="Camada 1"><g id="Camada_2-2" data-name="Camada 2"><g id="Camada_1-2-2" data-name="Camada 1-2"><path class="cls-1" d="M38.92,6.44H36.4v-2h7.36v2H41.24V12.8H38.92Z"/><path class="cls-1" d="M44.79,4.4h4a3.68,3.68,0,0,1,2.73.91,2.62,2.62,0,0,1,.74,2h0a2.65,2.65,0,0,1-1.72,2.58l2,2.93H49.82l-1.69-2.57h-1V12.8H44.79Zm3.86,4c.79,0,1.25-.38,1.25-1h0c0-.66-.48-1-1.26-1H47.11v2Z"/><path class="cls-1" d="M56.17,4.34h2.25L62,12.8H59.5l-.62-1.5H55.65L55,12.8H52.6Zm2,5.15L57.28,7.1l-1,2.39Z"/><path class="cls-1" d="M62.81,4.4h2.33v6.36H69.2v2H62.81Z"/><path class="cls-1" d="M70.2,4.4h2.33V7.54h3V4.4h2.32v8.4H75.52V9.61h-3V12.8H70.2Z"/><path class="cls-1" d="M82.24,4.34h2.24L88,12.8H85.56L85,11.3H81.71l-.6,1.5H78.66Zm2,5.15-.9-2.39-1,2.39Z"/><path class="cls-1" d="M88.12,11.55,89.41,10a4.33,4.33,0,0,0,2.73,1c.62,0,1-.22,1-.58h0c0-.35-.28-.54-1.42-.8-1.83-.42-3.2-.93-3.2-2.62h0c0-1.56,1.23-2.68,3.25-2.68a5.36,5.36,0,0,1,3.45,1.11L94,7a4.35,4.35,0,0,0-2.36-.83c-.56,0-.83.24-.83.54h0c0,.39.28.55,1.45.82,1.93.42,3.13,1,3.13,2.61h0c0,1.71-1.36,2.73-3.4,2.73A5.82,5.82,0,0,1,88.12,11.55Z"/><path class="cls-1" d="M42.42,21.67,41.65,20H38l-.77,1.71h-.48l2.85-6.16H40l2.85,6.16ZM39.84,16l-1.61,3.55h3.22Z"/><path class="cls-1" d="M49,21.67l-4.31-5.43v5.43h-.44V15.55h.43l4.22,5.33V15.55h.44v6.12Z"/><path class="cls-1" d="M53.28,16v5.7h-.45V16H50.7v-.42h4.72V16Z"/><path class="cls-1" d="M56.86,21.67V15.55h.46v6.12Z"/><path class="cls-1" d="M64.83,21.86,64,21.08a3.11,3.11,0,0,1-5.07-2.22v-.23h0a3.08,3.08,0,1,1,6.15-.35,2,2,0,0,1,0,.35h0a3.16,3.16,0,0,1-.8,2.16l.87.74Zm-.22-3.25a2.61,2.61,0,0,0-5.21-.32,1.71,1.71,0,0,0,0,.32h0a2.65,2.65,0,0,0,2.54,2.76H62a2.46,2.46,0,0,0,1.62-.58l-1.19-1,.33-.36L64,20.49a2.76,2.76,0,0,0,.66-1.85Z"/><path class="cls-1" d="M69,21.77a2.38,2.38,0,0,1-2.52-2.25,2.54,2.54,0,0,1,0-.39V15.55H67v3.54a2,2,0,0,0,1.71,2.26,1.41,1.41,0,0,0,.29,0,2,2,0,0,0,2-2,2.18,2.18,0,0,0,0-.25V15.55h.45v3.53a2.41,2.41,0,0,1-2.09,2.68A2.17,2.17,0,0,1,69,21.77Z"/><path class="cls-1" d="M78.4,21.67,77.62,20H74l-.77,1.71h-.48l2.85-6.16H76l2.85,6.16ZM75.82,16l-1.61,3.54h3.22Zm-.14-1,.77-1.17.54.26L76,15Z"/><path class="cls-1" d="M84.61,21.67l-2-2.53h-2v2.53h-.45V15.55h2.57c1.32,0,2.19.72,2.19,1.74h0A1.82,1.82,0,0,1,83.12,19l2,2.61Zm-.11-4.36c0-.82-.65-1.34-1.76-1.34H80.65v2.76h2.07c1,0,1.78-.52,1.78-1.4Z"/><path class="cls-1" d="M86.59,21.67V15.55H87v6.12Z"/><path class="cls-1" d="M91.72,21.78a3.05,3.05,0,0,1-3.07-3v-.11h0a3.08,3.08,0,0,1,6.16,0h0a3.09,3.09,0,0,1-3,3.15Zm2.62-3.17a2.64,2.64,0,0,0-2.55-2.74h-.07a2.62,2.62,0,0,0-2.6,2.64v.1h0a2.65,2.65,0,0,0,2.56,2.76h.06a2.62,2.62,0,0,0,2.6-2.65v-.09Z"/><path class="cls-2" d="M4.7,8.61C3.28,7.08,1.91,5.63.56,4.14c-.2-.23-.43-.65-.34-.86A1.3,1.3,0,0,1,1,2.7C4.48,1.85,7.94,1,11.39.18a1.22,1.22,0,0,1,1.34.43c1.31,1.44,2.64,2.84,4,4.33l2.7-2.84A20.82,20.82,0,0,1,21,.43a1.2,1.2,0,0,1,.89-.29C25.49,1,29,1.84,32.64,2.72c.82.21,1,.77.36,1.41l-3.76,4-.42.48,3,3.19L33,13.17c.55.61.42,1.11-.37,1.32-1.24.32-2.48.61-3.81.94V22c0,1.1,0,1.09-1.08,1.36-3.43.85-6.86,1.73-10.31,2.55a3.34,3.34,0,0,1-1.54,0C12.5,25.06,9,24.2,5.63,23.34c-1-.24-1-.24-1-1.28v-6c0-.49-.15-.67-.61-.76-1-.21-2-.47-3-.7s-1.17-.76-.47-1.51l3.7-4Zm11.72,4.05c-1.34,1.43-2.57,2.73-3.78,4.05a1,1,0,0,1-1.18.37c-1.5-.4-3-.74-4.53-1.1L5.3,15.59v7l11.12,2.76Zm.69,0V25.37c3.64-.9,7.23-1.79,10.81-2.71a.64.64,0,0,0,.32-.5V15.61l-.44.08c-2,.47-3.9,1-5.85,1.38a1.07,1.07,0,0,1-.85-.18c-.6-.54-1.13-1.16-1.69-1.75ZM.78,13.76a1.76,1.76,0,0,0,.37.17c3.48.85,7,1.7,10.46,2.52a.75.75,0,0,0,.58-.24c1-1,1.93-2,2.89-3.07l1.36-1.46c-.19-.06-.29-.11-.39-.13-3.16-.77-6.34-1.5-9.48-2.34a1.88,1.88,0,0,0-2.22.7C3.25,11.23,2,12.45.78,13.76Zm0-10.35c.23.27.39.46.56.64C2.47,5.28,3.64,6.5,4.76,7.76A1.11,1.11,0,0,0,6,8.13c1.54-.41,3.1-.75,4.65-1.13l5.75-1.41L16.2,5.3l-4-4.25a.67.67,0,0,0-.75-.24c-2.13.54-4.27,1-6.4,1.56Zm16.36,2.1c.08.06.1.1.14.11q5.29,1.29,10.6,2.56A.74.74,0,0,0,28.5,8c.93-1,1.82-1.92,2.72-2.89l1.51-1.64-.29-.13C29,2.49,25.44,1.63,22,.8A.86.86,0,0,0,21.3,1c-.81.82-1.59,1.67-2.37,2.51-.61.65-1.21,1.31-1.81,2ZM32.8,13.82,28.63,9.37a.89.89,0,0,0-1-.29c-2.87.71-5.75,1.4-8.63,2.09l-1.92.5c1.51,1.61,2.93,3.14,4.37,4.65a.7.7,0,0,0,.56.09c2.44-.57,4.88-1.16,7.32-1.75ZM26.7,8.66a2,2,0,0,0-.36-.18L17.57,6.37a3.13,3.13,0,0,0-1.49,0c-2.23.52-4.47,1-6.71,1.63L7,8.61a1,1,0,0,0,.5.26c2.27.55,4.56,1,6.81,1.68a7.81,7.81,0,0,0,4.92,0c.33-.1.66-.19,1-.26Z"/></g></g></g></g></svg>