<svg xmlns="http://www.w3.org/2000/svg" viewBox="0 0 95.42 26.11"><defs><style>.cls-1{stroke:#000;stroke-miterlimit:10;stroke-width:0.25px;}</style></defs><g id="Camada_2" data-name="Camada 2"><g id="Camada_1-2" data-name="Camada 1"><path d="M38.89,6.44H36.37v-2h7.36v2H41.21V12.8H38.89Z"/><path d="M44.76,4.4h4a3.68,3.68,0,0,1,2.73.91,2.62,2.62,0,0,1,.74,2v0a2.66,2.66,0,0,1-1.72,2.58l2,2.93H49.79L48.1,10.25h-1V12.8H44.76Zm3.86,4c.79,0,1.25-.38,1.25-1v0c0-.66-.48-1-1.26-1H47.08v2Z"/><path d="M56.14,4.34h2.25L62,12.8H59.47l-.62-1.5H55.62L55,12.8H52.57Zm2,5.15L57.25,7.1l-1,2.39Z"/><path d="M62.78,4.4h2.33v6.36h4.06v2H62.78Z"/><path d="M70.17,4.4H72.5V7.54h3V4.4h2.32v8.4H75.49V9.61h-3V12.8H70.17Z"/><path d="M82.21,4.34h2.24L88,12.8H85.53l-.61-1.5H81.68l-.6,1.5H78.63Zm2,5.15L83.31,7.1l-1,2.39Z"/><path d="M88.09,11.55,89.38,10a4.35,4.35,0,0,0,2.73,1c.62,0,1-.22,1-.58v0c0-.35-.28-.54-1.42-.8C89.86,9.2,88.49,8.69,88.49,7v0c0-1.56,1.23-2.68,3.25-2.68a5.29,5.29,0,0,1,3.45,1.11L94,7a4.23,4.23,0,0,0-2.36-.83c-.56,0-.83.24-.83.54v0c0,.39.28.55,1.45.82,1.93.42,3.13,1,3.13,2.61v0c0,1.71-1.36,2.73-3.4,2.73A5.88,5.88,0,0,1,88.09,11.55Z"/><path d="M42.39,21.67,41.62,20H38l-.77,1.71h-.48l2.85-6.16H40l2.85,6.16ZM39.81,16,38.2,19.55h3.22Z"/><path d="M48.94,21.67l-4.31-5.43v5.43h-.44V15.55h.43l4.22,5.33V15.55h.44v6.12Z"/><path d="M53.25,16v5.7H52.8V16H50.67v-.42h4.72V16Z"/><path d="M56.83,21.67V15.55h.46v6.12Z"/><path d="M64.8,21.86l-.86-.78a3,3,0,0,1-2,.7,3,3,0,0,1-3.07-3.15v0a3.08,3.08,0,1,1,6.15,0s0,0,0,0a3.19,3.19,0,0,1-.8,2.16l.87.74Zm-.22-3.25a2.61,2.61,0,1,0-5.21,0h0A2.65,2.65,0,0,0,62,21.37a2.5,2.5,0,0,0,1.62-.58l-1.19-1,.33-.36,1.17,1.06a2.81,2.81,0,0,0,.66-1.85Z"/><path d="M69,21.77a2.39,2.39,0,0,1-2.51-2.64V15.55H67v3.54A2,2,0,0,0,69,21.36a2,2,0,0,0,2-2.23V15.55h.45v3.53A2.4,2.4,0,0,1,69,21.77Z"/><path d="M78.37,21.67,77.59,20H74l-.77,1.71h-.48l2.85-6.16H76l2.85,6.16ZM75.79,16l-1.61,3.54H77.4Zm-.14-1,.77-1.17.54.26L76,15Z"/><path d="M84.58,21.67l-2-2.53h-2v2.53h-.45V15.55h2.57c1.32,0,2.19.72,2.19,1.74v0c0,1-.76,1.61-1.8,1.75l2,2.61Zm-.11-4.36c0-.82-.65-1.34-1.76-1.34H80.62v2.76h2.07c1,0,1.78-.52,1.78-1.4Z"/><path d="M86.56,21.67V15.55H87v6.12Z"/><path d="M91.69,21.78a3.06,3.06,0,0,1-3.07-3.15v0a3.08,3.08,0,1,1,6.16,0s0,0,0,0A3.09,3.09,0,0,1,91.69,21.78Zm2.62-3.17a2.65,2.65,0,0,0-2.62-2.75,2.62,2.62,0,0,0-2.6,2.74h0a2.66,2.66,0,0,0,2.62,2.76,2.63,2.63,0,0,0,2.6-2.74Z"/><path class="cls-1" d="M4.67,8.61C3.25,7.08,1.88,5.63.53,4.14.33,3.91.1,3.49.19,3.28A1.25,1.25,0,0,1,1,2.7C4.45,1.85,7.91,1,11.36.18A1.2,1.2,0,0,1,12.7.61c1.31,1.44,2.64,2.84,4,4.33L19.4,2.1c.52-.56,1-1.16,1.59-1.67a1.15,1.15,0,0,1,.89-.29C25.46,1,29,1.84,32.61,2.72c.82.21,1,.77.36,1.41l-3.76,4-.42.48,3,3.19L33,13.17c.55.61.42,1.11-.37,1.32-1.24.32-2.48.61-3.81.94V22c0,1.1,0,1.09-1.08,1.36-3.43.85-6.86,1.73-10.31,2.55a3.34,3.34,0,0,1-1.54,0C12.47,25.06,9,24.2,5.6,23.34c-1-.24-1-.24-1-1.28,0-2,0-4,0-6,0-.49-.15-.67-.61-.76-1-.21-2-.47-3-.7s-1.17-.76-.47-1.51L4.22,9.13Zm11.72,4.05c-1.34,1.43-2.57,2.73-3.78,4.05a1.06,1.06,0,0,1-1.18.37c-1.5-.4-3-.74-4.53-1.1l-1.63-.39v7l11.12,2.76Zm.69,0V25.37c3.64-.9,7.23-1.79,10.81-2.71a.64.64,0,0,0,.32-.5c0-1.15,0-2.3,0-3.46V15.61l-.44.08c-2,.47-3.9,1-5.85,1.38a1.1,1.1,0,0,1-.85-.18c-.6-.54-1.13-1.16-1.69-1.75ZM.75,13.76a3.33,3.33,0,0,0,.37.17c3.48.85,7,1.7,10.46,2.52a.77.77,0,0,0,.58-.24c1-1,1.93-2,2.89-3.07l1.36-1.46c-.19-.06-.29-.11-.39-.13-3.16-.77-6.34-1.5-9.48-2.34a1.87,1.87,0,0,0-2.22.7C3.22,11.23,2,12.45.75,13.76Zm0-10.35c.23.27.39.46.56.64C2.44,5.28,3.61,6.5,4.73,7.76A1.11,1.11,0,0,0,6,8.13c1.54-.41,3.1-.75,4.65-1.13L16.4,5.59l-.23-.29c-1.33-1.41-2.66-2.82-4-4.25a.66.66,0,0,0-.75-.24c-2.13.54-4.27,1-6.4,1.56Zm16.36,2.1c.08.06.1.1.14.11q5.3,1.29,10.6,2.56A.77.77,0,0,0,28.47,8c.93-1,1.82-1.92,2.72-2.89L32.7,3.47a1.55,1.55,0,0,0-.29-.13c-3.49-.85-7-1.71-10.49-2.54a.83.83,0,0,0-.65.24c-.81.82-1.59,1.67-2.37,2.51C18.29,4.2,17.69,4.86,17.09,5.51Zm15.66,8.31c-1.44-1.53-2.81-3-4.17-4.45a.88.88,0,0,0-1-.29c-2.87.71-5.75,1.4-8.63,2.09l-1.92.5c1.51,1.61,2.93,3.14,4.37,4.65a.7.7,0,0,0,.56.09c2.44-.57,4.88-1.16,7.32-1.75Zm-6.1-5.16a2.21,2.21,0,0,0-.36-.18L17.54,6.37a3,3,0,0,0-1.49,0C13.82,6.89,11.58,7.41,9.34,8l-2.4.61a1.1,1.1,0,0,0,.5.26c2.27.55,4.56,1,6.81,1.68a7.88,7.88,0,0,0,4.92,0,8.48,8.48,0,0,1,1-.26Z"/></g></g></svg>